<svg xmlns="http://www.w3.org/2000/svg" width="53.634" height="53.649" viewBox="0 0 53.634 53.649">
  <path id="pencil-solid" d="M43.044,24.185,44.229,23l-3.556-3.556L34.16,12.93,30.6,9.374,29.419,10.56l-2.37,2.37L6.154,33.824a9.3,9.3,0,0,0-2.329,3.923L.113,50.375a2.487,2.487,0,0,0,.64,2.486,2.54,2.54,0,0,0,2.486.64l12.618-3.713a9.3,9.3,0,0,0,3.923-2.329L40.673,26.566ZM16.79,41.848l-.954,2.381a4.424,4.424,0,0,1-1.4.724l-8.2,2.412,2.412-8.192a4.024,4.024,0,0,1,.724-1.4l2.381-.954V40.18a1.683,1.683,0,0,0,1.678,1.678H16.79ZM38.051,1.917l-1.51,1.521-2.37,2.37-1.2,1.185,3.556,3.556,6.514,6.514L46.6,20.618l1.185-1.185,2.37-2.37,1.521-1.521a6.71,6.71,0,0,0,0-9.492L47.554,1.917a6.71,6.71,0,0,0-9.492,0ZM33.079,19.538l-15.1,15.1a1.676,1.676,0,0,1-2.37-2.37l15.1-15.1a1.676,1.676,0,1,1,2.37,2.37Z" transform="translate(-0.009 0.05)" fill="#2bdc8e"/>
</svg>
