<svg xmlns="http://www.w3.org/2000/svg" width="57.432" height="92" viewBox="0 0 57.432 92">
  <g id="グループ_68" data-name="グループ 68" transform="translate(-71.685 7.5)">
    <g id="グループ_48" data-name="グループ 48" transform="translate(3 -1)">
      <rect id="長方形_31" data-name="長方形 31" width="56.456" height="56.456" rx="28.228" transform="matrix(1, -0.017, 0.017, 1, 68.685, 14.846)" fill="#2bdc8e"/>
      <g id="グループ_27" data-name="グループ 27" transform="translate(83.4 -6.5)">
        <text id="C" transform="translate(13 59)" fill="#222" font-size="36" font-family="Bungee-Shade, Bungee Shade"><tspan x="-13.104" y="0">C</tspan></text>
        <path id="C_-_アウトライン" data-name="C - アウトライン" d="M6.12,5.034H-2.664c-3.261,0-5.791-.895-7.52-2.66A9.568,9.568,0,0,1-12.63-4.5V-14.616c0-2.873.828-4.978,2.53-6.437l.006-.005,4.678-3.922C-3.8-26.36-1.38-27.03,1.98-27.03h8.784a2.151,2.151,0,0,1,2.406,2.406v4.356a2.38,2.38,0,0,1-.756,1.893l-.019.016L7.738-14.49a2.321,2.321,0,0,1-1.618.552H2.442V-8.6c0,.318,0,.618,1.086.618h7.236A2.151,2.151,0,0,1,13.17-5.58V-1.3A2.38,2.38,0,0,1,12.414.6L12.4.613,7.738,4.482A2.321,2.321,0,0,1,6.12,5.034ZM-9.127-19.912c-1.348,1.157-2,2.889-2,5.3V-4.5c0,3.665,1.469,8.034,8.466,8.034H6.12a.95.95,0,0,0,.586-.14l.024-.024L9.883.75H1.98C-1.253.75-3.6.106-5.2-1.218a6.268,6.268,0,0,1-1.847-2.6,9.786,9.786,0,0,1-.584-3.53v-11.2a10.561,10.561,0,0,1,.379-2.948ZM1.98-25.17c-2.87,0-4.9.532-6.216,1.626-1.272,1.06-1.89,2.7-1.89,5v11.2c0,2.29.618,3.916,1.889,4.971C-2.922-1.281-.888-.75,1.98-.75h8.784c.347,0,.44-.076.455-.091s.091-.108.091-.455V-5.58c0-.347-.076-.44-.091-.455s-.108-.091-.455-.091H3.528C1.093-6.126.582-7.474.582-8.6v-8.568a2.377,2.377,0,0,1,.8-1.938,3.259,3.259,0,0,1,2.142-.612h7.236c.347,0,.44-.076.455-.091s.091-.108.091-.455v-4.356c0-.347-.076-.44-.091-.455s-.108-.091-.455-.091Zm.1,9.732H6.12a.95.95,0,0,0,.586-.14L6.73-15.6l3.153-2.619H3.528c-1.34,0-1.446.455-1.446,1.05ZM9.534-2.49H2.772c-2.55,0-4.131-.386-5.127-1.25A5.2,5.2,0,0,1-3.738-7.884v-10.08a5.28,5.28,0,0,1,1.41-4.206c1-.871,2.575-1.26,5.1-1.26H9.534v1.86H2.772c-1.95,0-3.161.254-3.81.8-.589.495-.84,1.334-.84,2.805v10.08c0,2.457.44,3.534,4.65,3.534H9.534Z" transform="translate(13 59)" fill="#222"/>
        <path id="前面オブジェクトで型抜き_3" data-name="前面オブジェクトで型抜き 3" d="M15.8,26.674c-.112,0-.282-.023-.287-.054,0-.01.012-.021.04-.032a6.984,6.984,0,0,0-.822-.049l2.8-2.325a1.542,1.542,0,0,0,.476-1.258V19.647l.661,1.781-.322,2.154.158.156a1.6,1.6,0,0,0-.122.491,4.017,4.017,0,0,0-.623.876l-.364.459-.889.5-.951.526a.97.97,0,0,1,.323.074C15.878,26.67,15.85,26.674,15.8,26.674Zm1.6-.618h0a2.577,2.577,0,0,1,.363-.951l.934-1.181h0l0,.005c-.391.584-1.231,1.94-1.3,2.127Zm-.955-1.876h-8.3c-5.706,0-8.364-2.2-8.364-6.935V6.671a9.118,9.118,0,0,1,.365-2.7A7.21,7.21,0,0,1,2.835,1.107,7.669,7.669,0,0,1,6.819,0h5.9c.557,0,1.086,0,1.618.015.212,0,.441.005.684.006h.146a21.921,21.921,0,0,1,2.3.086,1.418,1.418,0,0,1,.2.815V5.038c0,.846-.378,1.224-1.224,1.224H9.608c-1.415,0-2.074.54-2.074,1.7v8.092c0,1.129.64,1.633,2.074,1.633H13.64l3.288.34.682.388a1.932,1.932,0,0,1,.057.5v4.045C17.667,23.8,17.289,24.18,16.443,24.18ZM8.895,2.76c-2.2,0-3.544.313-4.352,1.016-.763.664-1.088,1.692-1.088,3.438v9.52c0,2.972.814,4.386,5.44,4.386h5.678v-.339H8.895c-3.909,0-5.1-.945-5.1-4.046V7.214c0-1.62.313-2.575,1.046-3.191C5.6,3.385,6.849,3.1,8.895,3.1h5.678V2.76ZM8.336,17.067h0a1.12,1.12,0,0,1-.459-1.011v-.981l.461,1.992Zm-.459-3.493h0V10.309h.467a7.828,7.828,0,0,0-.43,2.765C7.9,13.249,7.889,13.418,7.877,13.574Zm5.272-3.635v0L17.531,6.3a1.542,1.542,0,0,0,.476-1.258V.924A2.254,2.254,0,0,0,17.9.169a3.989,3.989,0,0,1,.769.2V5.716L17.215,7.03l-.911.964-.907.356-.68.613-.762.818Z" transform="translate(6.82 33.864)" fill="#fff"/>
        <path id="前面オブジェクトで型抜き_3_-_アウトライン" data-name="前面オブジェクトで型抜き 3 - アウトライン" d="M15.8,27.174a1.057,1.057,0,0,1-.53-.113c-.125-.009-.3-.018-.548-.022l-1.345-.025,2.809-2.334H8.147c-3,0-5.173-.592-6.641-1.808-1.5-1.24-2.223-3.081-2.223-5.627V6.671A9.613,9.613,0,0,1-.33,3.827l.013-.041.02-.038A7.71,7.71,0,0,1,2.575.68,8.169,8.169,0,0,1,6.819-.5h5.9c.56,0,1.092.005,1.628.015.209,0,.435.005.675.006h.146c.631,0,1.333,0,1.992.055l-.016-.046.842.145a4.475,4.475,0,0,1,.866.228l.319.124V5.938l-1.6,1.45-.974,1.031-.927.363-.6.537-.858.92-1.346.266-.334-.7,3.658-3.039H9.608c-1.31,0-1.574.459-1.574,1.2V9.809H9.689l-.984.847a13.793,13.793,0,0,0-.295,2.452q-.018.27-.035.5l-.035.48-.305-.011V15l.327-.037.5,2.161a3.618,3.618,0,0,0,.746.066h4.058l3.418.354.955.543.054.2a2.429,2.429,0,0,1,.074.625v.618l.309-.055.705,1.9-.289,1.931.4.629-.181.271c-.067.1-.143.217-.225.343l0,.167-.112,0c-.391.614-.844,1.361-.914,1.514l-.116.322h-.682l-.718.269A.527.527,0,0,1,15.8,27.174ZM.612,4.165A8.68,8.68,0,0,0,.283,6.671V17.245c0,4.451,2.425,6.435,7.864,6.435h8.3c.568,0,.724-.156.724-.724V18.911q0-.095-.008-.177l-.387-.22-3.157-.327H9.608q-.266,0-.505-.023l.005.022-.038-.025a1.963,1.963,0,0,1-2.036-2.106V7.962c0-1,.447-2.2,2.574-2.2h6.835c.568,0,.724-.156.724-.724V.924a1.518,1.518,0,0,0-.034-.346C16.5.526,15.793.524,15.163.523h-.146c-.245,0-.476,0-.693-.006C13.8.506,13.27.5,12.717.5h-5.9A7.169,7.169,0,0,0,3.095,1.534,6.714,6.714,0,0,0,.612,4.165ZM15.073,21.62H8.895C6.483,21.62,5,21.247,4.1,20.408a4.744,4.744,0,0,1-1.145-3.674V7.214c0-1.906.377-3.047,1.26-3.815.9-.788,2.348-1.139,4.68-1.139h6.178V3.6H8.895c-1.893,0-3.08.256-3.733.805-.608.512-.868,1.352-.868,2.809v9.52c0,1.461.268,2.3.9,2.794.656.52,1.8.752,3.705.752h6.178Z" transform="translate(6.82 33.864)" fill="#222"/>
      </g>
    </g>
  </g>
</svg>
