<svg xmlns="http://www.w3.org/2000/svg" width="60.411" height="53.703" viewBox="0 0 60.411 53.703">
  <path id="house-solid" d="M60.4,26.8a3.389,3.389,0,0,1-3.356,3.367H53.682l.073,16.8a7.7,7.7,0,0,1-.052.85v1.689a4.194,4.194,0,0,1-4.2,4.2H47.829c-.115,0-.231,0-.346-.01-.147.01-.294.01-.441.01H41.116a4.194,4.194,0,0,1-4.2-4.2v-9.23a3.353,3.353,0,0,0-3.356-3.356H26.852A3.353,3.353,0,0,0,23.5,40.277v9.23a4.194,4.194,0,0,1-4.2,4.2H13.436c-.157,0-.315-.01-.472-.021-.126.01-.252.021-.378.021H10.908a4.194,4.194,0,0,1-4.2-4.2V37.76a2.748,2.748,0,0,1,.01-.294v-7.3H3.356A3.316,3.316,0,0,1,0,26.8a3.409,3.409,0,0,1,1.049-2.517L27.942.839A3.026,3.026,0,0,1,30.25,0a3.484,3.484,0,0,1,2.2.734L59.241,24.282A2.873,2.873,0,0,1,60.4,26.8Z" fill="#2bdc8e"/>
</svg>
